<svg width="1085" height="731" viewBox="0 0 1085 731" fill="none" xmlns="http://www.w3.org/2000/svg">
<g opacity="0.1">
<path d="M664.5 121L2 592.188" stroke="#B4ABAB" stroke-width="4.14117"/>
<path d="M664 118.5L136.589 650.165" stroke="#B4ABAB" stroke-width="4.14117"/>
<path d="M661.5 117L296.023 650.164" stroke="#B4ABAB" stroke-width="4.14117"/>
<path d="M659.5 113.5L418.186 650.164" stroke="#B4ABAB" stroke-width="4.14117"/>
<path d="M648.023 0H621.106C635.6 89.0352 635.6 155.294 633.529 289.882C631.873 397.553 602.47 628.768 587.976 730.917H660.447C660.447 729.537 660.861 720.15 662.517 693.647C664.174 667.143 670.11 512.815 672.87 438.964C674.941 448.627 679.91 472.922 683.223 492.8C686.536 512.677 697.027 607.372 701.859 652.235H761.906C745.341 561.129 709.727 361.11 699.788 289.882C689.849 218.654 687.365 91.796 687.365 37.2706H670.8L666.659 49.6941L668.729 105.6L664.588 103.529L660.447 33.1294L648.023 0Z" fill="#695F5F"/>
<path d="M668.727 105.6L664.586 103.529L660.445 35.1998L652.162 12.4233C654.923 57.2861 660.859 149.082 662.515 157.364C664.172 165.647 670.107 254.682 672.868 298.164C680.46 303.686 698.544 330.466 710.139 393.411C721.734 456.357 730.154 495.56 732.915 507.294C738.437 542.494 749.48 615.378 749.48 625.317V650.164L761.903 652.235C745.339 561.129 709.725 361.11 699.786 289.882C689.847 218.654 687.362 91.7959 687.362 37.2704H670.798L666.656 49.6939L668.727 105.6Z" fill="#8B8282"/>
<path d="M648.023 0H621.106C635.6 89.0352 635.6 155.294 633.529 289.882C631.873 397.553 602.47 628.768 587.976 730.917H660.447C660.447 729.537 660.861 720.15 662.517 693.647C664.174 667.143 672.37 465.515 672.87 438.964C673.561 380.298 673.285 248.47 666.659 190.494C660.033 132.518 654.063 46.2431 651.906 10.3529L648.023 0Z" fill="#797575"/>
<path d="M671.5 178.5L684.383 182.113L685.987 206.908L673.322 203.577L671.5 178.5Z" fill="#595252"/>
<path d="M674 214.78L686.337 218.28L687.5 246.5L676 242L674 214.78Z" fill="#595252"/>
<path d="M668 137.908L680.996 145.26L682.812 170.041L670.119 166.819L668 137.908Z" fill="#595252"/>
<path d="M675.5 123.5L1410.21 655.523" stroke="#B4ABAB" stroke-width="4.14117"/>
<path d="M675.152 123.382L1201.08 657.594" stroke="#B4ABAB" stroke-width="4.14117"/>
<path d="M675 123L1041.65 657.594" stroke="#B4ABAB" stroke-width="4.14117"/>
<path d="M675 123L921.554 659.664" stroke="#B4ABAB" stroke-width="4.14117"/>
<circle cx="673" cy="121" r="4" fill="#B4ABAB"/>
</g>
</svg>
