<svg width="1440" height="900" viewBox="0 0 1440 900" fill="none" xmlns="http://www.w3.org/2000/svg">
<g clip-path="url(#clip0)">
<rect width="1440" height="900" fill="white"/>
<rect width="1440" height="900" fill="url(#paint0_radial)"/>
<mask id="mask0" mask-type="alpha" maskUnits="userSpaceOnUse" x="0" y="457" width="346" height="443">
<rect y="457" width="346" height="443" fill="#C4C4C4"/>
</mask>
<g mask="url(#mask0)">
<path fill-rule="evenodd" clip-rule="evenodd" d="M-14.5684 650.326L47.4642 564.435L114.269 578.75L176.301 564.435L238.334 645.554L200.16 740.989L166.758 717.13L190.616 764.848L171.529 807.793L119.04 788.707V774.391L157.214 750.533L128.584 664.641L138.127 736.217L109.497 750.533L85.6382 736.217L95.1816 664.641L66.5512 750.533L104.725 774.391V788.707L52.236 812.565L33.149 764.848L61.7795 717.13L23.6056 736.217L-14.5684 650.326ZM33.1477 655.098C25.5129 651.28 20.4231 631.239 18.8325 621.695L80.8651 645.554L61.7781 693.271C61.7781 691.681 60.8238 685.637 57.0064 674.184C53.3226 663.133 46.7949 660.613 39.6188 657.843C37.4995 657.025 35.3236 656.185 33.1477 655.098ZM200.156 621.695C198.566 631.239 193.476 651.28 185.841 655.098C183.665 656.185 181.489 657.025 179.37 657.843C172.194 660.613 165.666 663.133 161.982 674.184C158.165 685.637 157.211 691.681 157.211 693.271L138.124 645.554L200.156 621.695Z" fill="#810B0B" fill-opacity="0.6"/>
<path d="M109.5 845.968L61.7822 826.881L109.5 803.022L161.989 826.881L109.5 845.968Z" fill="#810B0B" fill-opacity="0.6"/>
<path d="M95.1848 469L109.5 488.087L128.587 469H190.62L319.457 593.065L281.283 631.239L329 621.696V774.391L271.739 779.163L309.913 812.565L219.25 912.772H190.62L181.076 955.717L109.5 993.891L42.6956 955.717L33.1522 912.772H-0.25L-90.913 812.565L-52.7391 779.163L-110 774.391L-105.228 621.696L-57.5109 631.239L-95.6848 593.065L33.1522 469H95.1848Z" stroke="#810B0B" stroke-opacity="0.6" stroke-width="9.54348"/>
</g>
<mask id="mask1" mask-type="alpha" maskUnits="userSpaceOnUse" x="495" y="265" width="945" height="611">
<rect x="495" y="265" width="945" height="611" fill="#C4C4C4"/>
</mask>
<g mask="url(#mask1)">
<path d="M1187.5 404L525 875.188" stroke="#810B0B" stroke-width="4.14117"/>
<path d="M1187 401.5L659.589 933.165" stroke="#810B0B" stroke-width="4.14117"/>
<path d="M1184.5 400L819.023 933.164" stroke="#810B0B" stroke-width="4.14117"/>
<path d="M1182.5 396.5L941.187 933.164" stroke="#810B0B" stroke-width="4.14117"/>
<path d="M1171.02 283H1144.11C1158.6 372.035 1158.6 438.294 1156.53 572.882C1154.87 680.553 1125.47 911.768 1110.98 1013.92H1183.45C1183.45 1012.54 1183.86 1003.15 1185.52 976.647C1187.17 950.143 1193.11 795.815 1195.87 721.964C1197.94 731.627 1202.91 755.922 1206.22 775.8C1209.54 795.677 1220.03 890.372 1224.86 935.235H1284.91C1268.34 844.129 1232.73 644.11 1222.79 572.882C1212.85 501.654 1210.36 374.796 1210.36 320.271H1193.8L1189.66 332.694L1191.73 388.6L1187.59 386.529L1183.45 316.129L1171.02 283Z" fill="#810B0B"/>
<path d="M1191.73 388.6L1187.59 386.529L1183.44 318.2L1175.16 295.423C1177.92 340.286 1183.86 432.082 1185.52 440.364C1187.17 448.647 1193.11 537.682 1195.87 581.164C1203.46 586.686 1221.54 613.466 1233.14 676.411C1244.73 739.357 1253.15 778.56 1255.92 790.294C1261.44 825.494 1272.48 898.378 1272.48 908.317V933.164L1284.9 935.235C1268.34 844.129 1232.72 644.11 1222.79 572.882C1212.85 501.654 1210.36 374.796 1210.36 320.27H1193.8L1189.66 332.694L1191.73 388.6Z" fill="#A91010"/>
<path d="M1171.02 283H1144.11C1158.6 372.035 1158.6 438.294 1156.53 572.882C1154.87 680.553 1125.47 911.768 1110.98 1013.92H1183.45C1183.45 1012.54 1183.86 1003.15 1185.52 976.647C1187.17 950.143 1195.37 748.515 1195.87 721.964C1196.56 663.298 1196.28 531.47 1189.66 473.494C1183.03 415.518 1177.06 329.243 1174.91 293.353L1171.02 283Z" fill="#8B0D0D"/>
<path d="M1194.5 461.5L1207.38 465.113L1208.99 489.908L1196.32 486.577L1194.5 461.5Z" fill="#810B0B"/>
<path d="M1197 497.78L1209.34 501.28L1210.5 529.5L1199 525L1197 497.78Z" fill="#810B0B"/>
<path d="M1191 420.908L1204 428.26L1205.81 453.041L1193.12 449.819L1191 420.908Z" fill="#810B0B"/>
<path d="M1198.5 406.5L1933.21 938.523" stroke="#810B0B" stroke-width="4.14117"/>
<path d="M1198.15 406.382L1724.08 940.594" stroke="#810B0B" stroke-width="4.14117"/>
<path d="M1198 406L1564.65 940.594" stroke="#810B0B" stroke-width="4.14117"/>
<path d="M1198 406L1444.55 942.664" stroke="#810B0B" stroke-width="4.14117"/>
<circle cx="1198" cy="405" r="4" fill="#810B0B"/>
</g>
</g>
<defs>
<radialGradient id="paint0_radial" cx="0" cy="0" r="1" gradientUnits="userSpaceOnUse" gradientTransform="translate(720 450) rotate(90) scale(450 720)">
<stop stop-color="#A50505" stop-opacity="0.83"/>
<stop offset="1" stop-color="#910606"/>
</radialGradient>
<clipPath id="clip0">
<rect width="1440" height="900" fill="white"/>
</clipPath>
</defs>
</svg>
