<svg width="1440" height="900" viewBox="0 0 1440 900" fill="none" xmlns="http://www.w3.org/2000/svg">
<g clip-path="url(#clip0)">
<rect width="1440" height="900" fill="white"/>
<rect width="1440" height="900" fill="url(#paint0_radial)"/>
<mask id="mask0" mask-type="alpha" maskUnits="userSpaceOnUse" x="0" y="290" width="346" height="443">
<rect y="290" width="346" height="443" fill="#C4C4C4"/>
</mask>
<g mask="url(#mask0)">
<path fill-rule="evenodd" clip-rule="evenodd" d="M-14.5684 483.326L47.4642 397.435L114.269 411.75L176.301 397.435L238.334 478.554L200.16 573.989L166.758 550.13L190.616 597.848L171.529 640.793L119.04 621.707V607.391L157.214 583.533L128.584 497.641L138.127 569.217L109.497 583.533L85.6382 569.217L95.1816 497.641L66.5512 583.533L104.725 607.391V621.707L52.236 645.565L33.149 597.848L61.7795 550.13L23.6056 569.217L-14.5684 483.326ZM33.1477 488.098C25.5129 484.28 20.4231 464.239 18.8325 454.695L80.8651 478.554L61.7781 526.271C61.7781 524.681 60.8238 518.637 57.0064 507.184C53.3226 496.133 46.7949 493.613 39.6188 490.843C37.4995 490.025 35.3236 489.185 33.1477 488.098ZM200.156 454.695C198.566 464.239 193.476 484.28 185.841 488.098C183.665 489.185 181.489 490.025 179.37 490.843C172.194 493.613 165.666 496.133 161.982 507.184C158.165 518.637 157.211 524.681 157.211 526.271L138.124 478.554L200.156 454.695Z" fill="#810B0B" fill-opacity="0.6"/>
<path d="M109.5 678.968L61.7822 659.881L109.5 636.022L161.989 659.881L109.5 678.968Z" fill="#810B0B" fill-opacity="0.6"/>
<path d="M95.1848 302L109.5 321.087L128.587 302H190.62L319.457 426.065L281.283 464.239L329 454.696V607.391L271.739 612.163L309.913 645.565L219.25 745.772H190.62L181.076 788.717L109.5 826.891L42.6956 788.717L33.1522 745.772H-0.25L-90.913 645.565L-52.7391 612.163L-110 607.391L-105.228 454.696L-57.5109 464.239L-95.6848 426.065L33.1522 302H95.1848Z" stroke="#810B0B" stroke-opacity="0.6" stroke-width="9.54348"/>
</g>
<mask id="mask1" mask-type="alpha" maskUnits="userSpaceOnUse" x="495" y="159" width="945" height="611">
<rect x="495" y="159" width="945" height="611" fill="#C4C4C4"/>
</mask>
<g mask="url(#mask1)">
<path d="M1187.5 298L525 769.188" stroke="#810B0B" stroke-width="4.14117"/>
<path d="M1187 295.5L659.589 827.165" stroke="#810B0B" stroke-width="4.14117"/>
<path d="M1184.5 294L819.023 827.164" stroke="#810B0B" stroke-width="4.14117"/>
<path d="M1182.5 290.5L941.187 827.164" stroke="#810B0B" stroke-width="4.14117"/>
<path d="M1171.02 177H1144.11C1158.6 266.035 1158.6 332.294 1156.53 466.882C1154.87 574.553 1125.47 805.768 1110.98 907.917H1183.45C1183.45 906.537 1183.86 897.15 1185.52 870.647C1187.17 844.143 1193.11 689.815 1195.87 615.964C1197.94 625.627 1202.91 649.922 1206.22 669.8C1209.54 689.677 1220.03 784.372 1224.86 829.235H1284.91C1268.34 738.129 1232.73 538.11 1222.79 466.882C1212.85 395.654 1210.36 268.796 1210.36 214.271H1193.8L1189.66 226.694L1191.73 282.6L1187.59 280.529L1183.45 210.129L1171.02 177Z" fill="#810B0B"/>
<path d="M1191.73 282.6L1187.59 280.529L1183.44 212.2L1175.16 189.423C1177.92 234.286 1183.86 326.082 1185.52 334.364C1187.17 342.647 1193.11 431.682 1195.87 475.164C1203.46 480.686 1221.54 507.466 1233.14 570.411C1244.73 633.357 1253.15 672.56 1255.92 684.294C1261.44 719.494 1272.48 792.378 1272.48 802.317V827.164L1284.9 829.235C1268.34 738.129 1232.72 538.11 1222.79 466.882C1212.85 395.654 1210.36 268.796 1210.36 214.27H1193.8L1189.66 226.694L1191.73 282.6Z" fill="#A91010"/>
<path d="M1171.02 177H1144.11C1158.6 266.035 1158.6 332.294 1156.53 466.882C1154.87 574.553 1125.47 805.768 1110.98 907.917H1183.45C1183.45 906.537 1183.86 897.15 1185.52 870.647C1187.17 844.143 1195.37 642.515 1195.87 615.964C1196.56 557.298 1196.28 425.47 1189.66 367.494C1183.03 309.518 1177.06 223.243 1174.91 187.353L1171.02 177Z" fill="#8B0D0D"/>
<path d="M1194.5 355.5L1207.38 359.113L1208.99 383.908L1196.32 380.577L1194.5 355.5Z" fill="#810B0B"/>
<path d="M1197 391.78L1209.34 395.28L1210.5 423.5L1199 419L1197 391.78Z" fill="#810B0B"/>
<path d="M1191 314.908L1204 322.26L1205.81 347.041L1193.12 343.819L1191 314.908Z" fill="#810B0B"/>
<path d="M1198.5 300.5L1933.21 832.523" stroke="#810B0B" stroke-width="4.14117"/>
<path d="M1198.15 300.382L1724.08 834.594" stroke="#810B0B" stroke-width="4.14117"/>
<path d="M1198 300L1564.65 834.594" stroke="#810B0B" stroke-width="4.14117"/>
<path d="M1198 300L1444.55 836.664" stroke="#810B0B" stroke-width="4.14117"/>
<circle cx="1198" cy="299" r="4" fill="#810B0B"/>
</g>
</g>
<defs>
<radialGradient id="paint0_radial" cx="0" cy="0" r="1" gradientUnits="userSpaceOnUse" gradientTransform="translate(720 450) rotate(90) scale(450 720)">
<stop stop-color="#A50505" stop-opacity="0.83"/>
<stop offset="1" stop-color="#910606"/>
</radialGradient>
<clipPath id="clip0">
<rect width="1440" height="900" fill="white"/>
</clipPath>
</defs>
</svg>
