<svg width="35" height="35" viewBox="0 0 35 35" fill="none" xmlns="http://www.w3.org/2000/svg">
<path d="M17.5 0C27.1493 0 35 7.85066 35 17.5C35 27.1493 27.1493 35 17.5 35C7.85066 35 0 27.1493 0 17.5C0 7.85066 7.85066 0 17.5 0ZM17.5 33.5417C26.3454 33.5417 33.5417 26.3454 33.5417 17.5C33.5417 8.65457 26.3454 1.45831 17.5 1.45831C8.65457 1.45831 1.45831 8.65457 1.45831 17.5C1.45831 26.3454 8.65457 33.5417 17.5 33.5417Z" fill="white"/>
<path d="M8.02077 16.7713H25.2189L19.9011 11.4534C19.6162 11.1686 19.6162 10.7072 19.9011 10.4224C20.1859 10.1375 20.6474 10.1375 20.9321 10.4224L27.4946 16.9849C27.7795 17.2697 27.7795 17.7312 27.4946 18.0159L20.9321 24.5784C20.7898 24.7208 20.6031 24.7921 20.4166 24.7921C20.23 24.7921 20.0435 24.7208 19.901 24.5784C19.6162 24.2936 19.6162 23.8322 19.901 23.5474L25.2188 18.2296H8.02077C7.61772 18.2296 7.29158 17.9034 7.29158 17.5004C7.29158 17.0973 7.61772 16.7713 8.02077 16.7713Z" fill="white"/>
</svg>
