<svg width="1440" height="294" viewBox="0 0 1440 294" fill="none" xmlns="http://www.w3.org/2000/svg">
<path fill-rule="evenodd" clip-rule="evenodd" d="M1440 13H0V264.945C17.5088 255.415 43.0189 244.897 63 257.214C91.3518 274.69 96.6774 269.11 104.324 261.098C109.622 255.545 116.036 248.825 132 247.802C146.187 246.892 151.516 249.089 157.732 251.651C160.853 252.937 164.198 254.316 169 255.44C192.5 260.94 202 252.44 202 252.44C202 252.44 228 231 236 224.44C252.537 210.879 258.672 227.457 265.694 246.428C272.75 265.493 280.7 286.974 301 282.714C315.763 279.616 323.152 271.033 329.39 263.787C340.264 251.154 347.642 242.583 384.5 274.214C390.806 279.626 399.674 271.625 409.08 263.139C424.631 249.108 441.653 233.75 451 275.5C455.911 287.778 462.299 284.304 474.48 277.681C479.661 274.864 485.89 271.477 493.5 268.489C503.339 264.626 511.711 259.872 519.595 255.396C534.862 246.727 548.296 239.098 567 241C579.98 242.32 590.088 252.716 599.946 262.855C611.167 274.395 622.063 285.601 636.5 282.714C652.96 279.422 669.645 272.423 684.9 266.024C709.032 255.901 729.584 247.28 740 257.214C750.043 266.792 766.583 252.745 781.404 240.157C791.672 231.437 801.115 223.418 807 224.44C821.024 226.875 822.436 239.854 823.872 253.063C825.783 270.636 827.739 288.616 859.5 282.714C883.016 278.344 896.139 270.35 907.771 263.264C924.087 253.326 937.473 245.172 972.5 251.302C1002.69 256.585 1010.48 266.659 1016.36 274.28C1022.18 281.803 1026.14 286.937 1048 282.714C1063.2 279.779 1071.06 284.069 1078.44 288.099C1092.44 295.739 1104.72 302.442 1162 257.214C1176.65 245.648 1184.33 253.355 1194.17 263.234C1203.01 272.1 1213.58 282.714 1232.5 282.714C1247.5 282.714 1251.25 262.604 1254.72 243.986C1260.5 212.971 1265.51 186.096 1320.5 263.214C1332.4 279.905 1356 284.714 1389.5 276.714C1394.34 275.557 1398.59 272.756 1403.33 269.626C1411.84 264.01 1421.95 257.337 1440 257.216V13Z" fill="#890606"/>
<path fill-rule="evenodd" clip-rule="evenodd" d="M1440 0H0V251.945C17.5088 242.415 43.0189 231.897 63 244.214C91.3518 261.69 96.6774 256.11 104.324 248.098C109.622 242.545 116.036 235.825 132 234.802C146.187 233.892 151.516 236.089 157.732 238.651C160.853 239.937 164.198 241.316 169 242.44C192.5 247.94 202 239.44 202 239.44C202 239.44 228 218 236 211.44C252.537 197.879 258.672 214.457 265.694 233.428C272.75 252.493 280.7 273.974 301 269.714C315.763 266.616 323.152 258.033 329.39 250.787C340.264 238.154 347.642 229.583 384.5 261.214C390.806 266.626 399.674 258.625 409.08 250.139C424.631 236.108 441.653 220.75 451 262.5C455.911 274.778 462.299 271.304 474.48 264.681C479.661 261.864 485.89 258.477 493.5 255.489C503.339 251.626 511.711 246.872 519.595 242.396C534.862 233.727 548.296 226.098 567 228C579.98 229.32 590.088 239.716 599.946 249.855C611.167 261.395 622.063 272.601 636.5 269.714C652.96 266.422 669.645 259.423 684.9 253.024C709.032 242.901 729.584 234.28 740 244.214C750.043 253.792 766.583 239.745 781.404 227.157C791.672 218.437 801.115 210.418 807 211.44C821.024 213.875 822.436 226.854 823.872 240.063C825.783 257.636 827.739 275.616 859.5 269.714C883.016 265.344 896.139 257.35 907.771 250.264C924.087 240.326 937.473 232.172 972.5 238.302C1002.69 243.585 1010.48 253.659 1016.36 261.28C1022.18 268.803 1026.14 273.937 1048 269.714C1063.2 266.779 1071.06 271.069 1078.44 275.099C1092.44 282.739 1104.72 289.442 1162 244.214C1176.65 232.648 1184.33 240.355 1194.17 250.234C1203.01 259.1 1213.58 269.714 1232.5 269.714C1247.5 269.714 1251.25 249.604 1254.72 230.986C1260.5 199.971 1265.51 173.096 1320.5 250.214C1332.4 266.905 1356 271.714 1389.5 263.714C1394.34 262.557 1398.59 259.756 1403.33 256.626C1411.84 251.01 1421.95 244.337 1440 244.216V0Z" fill="url(#paint0_radial)"/>
<defs>
<radialGradient id="paint0_radial" cx="0" cy="0" r="1" gradientUnits="userSpaceOnUse" gradientTransform="translate(720 1514.02) rotate(90) scale(1514.02 720)">
<stop stop-color="#A50505" stop-opacity="0.83"/>
<stop offset="1" stop-color="#910606"/>
</radialGradient>
</defs>
</svg>
