<svg width="175" height="208" viewBox="0 0 175 208" fill="none" xmlns="http://www.w3.org/2000/svg">
<path fill-rule="evenodd" clip-rule="evenodd" d="M40.7973 73.017L64.0662 40.7985L89.1251 46.1682L112.394 40.7985L135.663 71.2271L121.344 107.026L108.814 98.0759L117.764 115.975L110.604 132.084L90.9151 124.925V119.555L105.234 110.605L94.4949 78.3868L98.0747 105.236L87.3352 110.605L78.3856 105.236L81.9655 78.3868L71.2259 110.605L85.5453 119.555V124.925L65.8562 133.874L58.6965 115.975L69.436 98.0759L55.1166 105.236L40.7973 73.017ZM58.696 74.8068C55.8321 73.3748 53.9229 65.8572 53.3262 62.2773L76.5952 71.2269L69.4355 89.1262C69.4355 88.5295 69.0775 86.2623 67.6456 81.9665C66.2638 77.821 63.8152 76.8758 61.1234 75.8368L61.1233 75.8368C60.3283 75.5299 59.5122 75.2149 58.696 74.8068ZM121.342 62.2773C120.746 65.8572 118.837 73.3748 115.973 74.8068C115.156 75.2149 114.34 75.5299 113.545 75.8368C110.853 76.8758 108.405 77.821 107.023 81.9665C105.591 86.2623 105.233 88.5295 105.233 89.1261L98.0734 71.2269L121.342 62.2773Z" fill="#CE4343"/>
<path d="M87.3362 146.404L69.437 139.244L87.3362 130.295L107.025 139.244L87.3362 146.404Z" fill="#CE4343"/>
<path d="M81.9666 5L87.3364 12.1597L94.496 5H117.765L166.093 51.5379L151.774 65.8573L169.673 62.2775V119.555L148.194 121.345L162.513 133.874L128.505 171.463H117.765L114.185 187.572L87.3364 201.891L62.2775 187.572L58.6976 171.463H46.1682L12.1597 133.874L26.4791 121.345L5 119.555L6.78992 62.2775L24.6891 65.8573L10.3698 51.5379L58.6976 5H81.9666Z" stroke="#CE4343" stroke-width="9.54348"/>
</svg>
