<svg width="23" height="23" viewBox="0 0 23 23" fill="none" xmlns="http://www.w3.org/2000/svg">
<path fill-rule="evenodd" clip-rule="evenodd" d="M0 11.4026C0 5.11523 5.11523 0 11.4026 0C17.6904 0 22.8052 5.11523 22.8052 11.4026C22.8052 17.6895 17.6895 22.8052 11.4026 22.8052C5.11523 22.8052 0 17.6895 0 11.4026ZM12.3906 10.435C12.7323 9.90741 13.3429 9.15587 14.7102 9.15587C16.4044 9.15587 17.6752 10.2632 17.6765 12.6414V17.0844H17.6758H15.1008V12.9393C15.1008 11.8969 14.7282 11.1866 13.7965 11.1866C13.0849 11.1866 12.6615 11.6659 12.4749 12.1292C12.4054 12.2946 12.3906 12.5269 12.3906 12.7579V17.0863H9.81553C9.81553 17.0863 9.84899 10.0644 9.81553 9.33861H12.3906V10.435ZM12.3726 10.4621H12.3887V10.4357C12.3867 10.4413 12.3829 10.4466 12.3791 10.452C12.3768 10.4553 12.3745 10.4586 12.3726 10.4621ZM8.38745 9.33855H5.8124V17.0862H8.38745V9.33855ZM5.66163 6.94196C5.66163 6.18142 6.23816 5.60361 7.11838 5.60361C7.9999 5.60361 8.54103 6.18206 8.5584 6.94196C8.5584 7.68514 7.99925 8.28032 7.10101 8.28032H7.08428C6.22078 8.28032 5.66163 7.68514 5.66163 6.94196Z" fill="white"/>
</svg>
