<svg width="1440" height="836" viewBox="0 0 1440 836" fill="none" xmlns="http://www.w3.org/2000/svg">
<path fill-rule="evenodd" clip-rule="evenodd" d="M1440 836H0V37.8202C17.5088 50.3934 43.0189 64.2696 63 48.0201C91.3518 24.9631 96.6774 32.3256 104.324 42.8961C109.622 50.2217 116.036 59.088 132 60.4382C146.187 61.638 151.516 58.7401 157.732 55.3599C160.853 53.6625 164.198 51.8436 169 50.3608C192.5 43.1046 202 54.3189 202 54.3189C202 54.3189 228 82.6049 236 91.26C252.537 109.151 258.672 87.2794 265.694 62.2502C272.75 37.0975 280.7 8.75635 301 14.3773C315.763 18.4651 323.152 29.7886 329.39 39.3488C340.264 56.0152 347.642 67.3225 384.5 25.5916C390.806 18.4513 399.674 29.0068 409.08 40.2027C424.631 58.7142 441.653 78.9763 451 23.8948C455.911 7.69653 462.299 12.279 474.48 21.0175C479.661 24.7344 485.89 29.2032 493.5 33.1445C503.339 38.2406 511.711 44.5128 519.595 50.4189C534.862 61.8563 548.296 71.9208 567 69.4116C579.98 67.6703 590.088 53.9545 599.946 40.5778C611.167 25.3531 622.063 10.5678 636.5 14.3773C652.96 18.7205 669.645 27.9546 684.9 36.3969C709.032 49.7526 729.584 61.1267 740 48.0201C750.043 35.383 766.583 53.9164 781.404 70.5234C791.672 82.0281 801.115 92.6083 807 91.26C821.024 88.0471 822.436 70.9236 823.872 53.4971C825.783 30.3118 827.739 6.5899 859.5 14.3773C883.016 20.1431 896.139 30.6887 907.771 40.0375C924.087 53.1497 937.473 63.9075 972.5 55.8204C1002.69 48.8493 1010.48 35.5596 1016.36 25.505C1022.18 15.5792 1026.14 8.80627 1048 14.3773C1063.2 18.2501 1071.06 12.5896 1078.44 7.27264C1083.58 3.56702 1088.5 0.0281982 1095.5 0C1095.56 -0.000244141 1095.62 -0.000244141 1095.67 0C1107.72 0.0484009 1125.95 10.4634 1162 48.0201C1176.63 63.264 1184.73 52.438 1194.95 38.7672C1204.14 26.4713 1215.06 11.8739 1234 11.8739C1249.1 11.8739 1252.58 39.0838 1255.81 64.2148C1261.12 105.676 1265.71 141.479 1320.5 40.1041C1332.4 18.0829 1356 11.7386 1389.5 22.2932C1394.34 23.8195 1398.59 27.5156 1403.33 31.6447C1411.84 39.0543 1421.95 47.858 1440 48.0179V836Z" fill="#FAFAFA"/>
</svg>
