<svg width="1440" height="252" viewBox="0 0 1440 252" fill="none" xmlns="http://www.w3.org/2000/svg">
<path fill-rule="evenodd" clip-rule="evenodd" d="M1440 -29H0V222.945C17.5088 213.415 43.0189 202.897 63 215.214C91.3518 232.69 96.6774 227.11 104.324 219.098C109.622 213.545 116.036 206.825 132 205.802C146.187 204.892 151.516 207.089 157.732 209.651C160.853 210.937 164.198 212.316 169 213.44C192.5 218.94 202 210.44 202 210.44C202 210.44 228 189 236 182.44C252.537 168.879 258.672 185.457 265.694 204.428C272.75 223.493 280.7 244.974 301 240.714C315.763 237.616 323.152 229.033 329.39 221.787C340.264 209.154 347.642 200.583 384.5 232.214C390.806 237.626 399.674 229.625 409.08 221.139C424.631 207.108 441.653 191.75 451 233.5C455.911 245.778 462.299 242.304 474.48 235.681C479.661 232.864 485.89 229.477 493.5 226.489C503.339 222.626 511.711 217.872 519.595 213.396C534.862 204.727 548.296 197.098 567 199C579.98 200.32 590.088 210.716 599.946 220.855C611.167 232.395 622.063 243.601 636.5 240.714C652.96 237.422 669.645 230.423 684.9 224.024C709.032 213.901 729.584 205.28 740 215.214C750.043 224.792 766.583 210.745 781.404 198.157C791.672 189.437 801.115 181.418 807 182.44C821.024 184.875 822.436 197.854 823.872 211.063C825.783 228.636 827.739 246.616 859.5 240.714C883.016 236.344 896.139 228.35 907.771 221.264C924.087 211.326 937.473 203.172 972.5 209.302C1002.69 214.585 1010.48 224.659 1016.36 232.28C1022.18 239.803 1026.14 244.937 1048 240.714C1063.2 237.779 1071.06 242.069 1078.44 246.099C1092.44 253.739 1104.72 260.442 1162 215.214C1176.65 203.648 1184.33 211.355 1194.17 221.234C1203.01 230.1 1213.58 240.714 1232.5 240.714C1247.5 240.714 1251.25 220.604 1254.72 201.986C1260.5 170.971 1265.51 144.096 1320.5 221.214C1332.4 237.905 1356 242.714 1389.5 234.714C1394.34 233.557 1398.59 230.756 1403.33 227.626C1411.84 222.01 1421.95 215.337 1440 215.216V-29Z" fill="url(#paint0_radial)"/>
<defs>
<radialGradient id="paint0_radial" cx="0" cy="0" r="1" gradientUnits="userSpaceOnUse" gradientTransform="translate(720 1485.02) rotate(90) scale(1514.02 720)">
<stop stop-color="#A50505" stop-opacity="0.83"/>
<stop offset="1" stop-color="#910606"/>
</radialGradient>
</defs>
</svg>
