<svg width="24" height="24" viewBox="0 0 24 24" fill="none" xmlns="http://www.w3.org/2000/svg">
<path fill-rule="evenodd" clip-rule="evenodd" d="M11.7639 0.0286865C18.2608 0.0286865 23.5279 5.37073 23.5279 11.9602C23.5279 18.5496 18.2608 23.8917 11.7639 23.8917C5.26701 23.8917 0 18.5496 0 11.9602C0 5.37073 5.26701 0.0286865 11.7639 0.0286865ZM16.9607 9.11295C16.9662 9.23628 16.9684 9.36074 16.9684 9.48635C16.9684 13.3052 14.2714 17.7067 9.33981 17.7055C7.82472 17.7055 6.41559 17.219 5.2282 16.384C5.43788 16.4111 5.65193 16.4258 5.86825 16.4258C7.12402 16.4292 8.28047 15.963 9.19859 15.1823C8.0256 15.154 7.03465 14.302 6.69366 13.1354C6.85698 13.1717 7.02473 13.1909 7.19796 13.192C7.44184 13.1931 7.6791 13.1592 7.90422 13.0936C6.67716 12.8152 5.75241 11.6226 5.75241 10.1992V10.1618C6.11435 10.3859 6.52705 10.5228 6.96733 10.5432C6.24787 10.0091 5.77447 9.10392 5.77447 8.08554C5.77447 7.54693 5.90688 7.04455 6.13751 6.61458C7.45954 8.40911 9.43588 9.59946 11.666 9.74654C11.6197 9.53272 11.5965 9.31092 11.5965 9.08236C11.5965 7.47452 12.7971 6.19139 14.278 6.21629C15.0494 6.22987 15.7468 6.59306 16.2357 7.16336C16.8459 7.04341 17.4197 6.81258 17.9384 6.49011C17.7375 7.16108 17.3127 7.72004 16.7587 8.06968C17.3017 8.00749 17.8181 7.85927 18.2992 7.63747C17.9395 8.21115 17.4848 8.71238 16.9607 9.11295Z" fill="white"/>
</svg>
